<svg width="20" height="16" viewBox="0 0 20 16" fill="none" xmlns="http://www.w3.org/2000/svg">
<path d="M14 13.1062V15.1114H0V13.1062C0 13.1062 0 9.09586 7 9.09586C14 9.09586 14 13.1062 14 13.1062ZM10.5 3.58161C10.5 2.88758 10.2947 2.20914 9.91014 1.63208C9.52556 1.05502 8.97893 0.605251 8.33939 0.339658C7.69985 0.0740657 6.99612 0.00457449 6.31718 0.139973C5.63825 0.275371 5.01461 0.609577 4.52513 1.10033C4.03564 1.59108 3.7023 2.21633 3.56725 2.89703C3.4322 3.57772 3.50152 4.28327 3.76642 4.92447C4.03133 5.56567 4.47993 6.11371 5.0555 6.49929C5.63108 6.88487 6.30777 7.09068 7 7.09068C7.92826 7.09068 8.8185 6.72097 9.47487 6.06289C10.1313 5.40482 10.5 4.51227 10.5 3.58161ZM13.94 9.09586C14.5547 9.57283 15.0578 10.1791 15.4137 10.872C15.7696 11.5648 15.9697 12.3275 16 13.1062V15.1114H20V13.1062C20 13.1062 20 9.46681 13.94 9.09586ZM13 0.0725467C12.3118 0.0693372 11.6388 0.275602 11.07 0.664075C11.6774 1.51501 12.0041 2.53519 12.0041 3.58161C12.0041 4.62803 11.6774 5.64821 11.07 6.49915C11.6388 6.88762 12.3118 7.09388 13 7.09068C13.9283 7.09068 14.8185 6.72097 15.4749 6.06289C16.1313 5.40482 16.5 4.51227 16.5 3.58161C16.5 2.65095 16.1313 1.75841 15.4749 1.10033C14.8185 0.442251 13.9283 0.0725467 13 0.0725467Z" fill="#176BB3"/>
</svg>
