<svg width="12" height="12" viewBox="0 0 12 12" fill="none" xmlns="http://www.w3.org/2000/svg">
<path d="M8.64981 2.36719V4.30664H7.94669V3.07031H3.93658V4.3493H3.23346V2.36719H8.64981Z" fill="#6D76E7"/>
<path d="M7.94669 3.07031H6V2.36719H8.64981V4.30664H7.94669V3.07031Z" fill="#3A4DE3"/>
<path d="M12 9.6416H0L0.919922 5.82129H11.0801L12 9.6416Z" fill="#55FBFF"/>
<path d="M12 9.6416H6V5.82129H11.0801L12 9.6416Z" fill="#00D9E0"/>
<path d="M1.89917 6.2666L1.39078 9.6416H2.10187L2.61035 6.2666H1.89917Z" fill="#D1FEFB"/>
<path d="M9.38965 6.2666L9.89813 9.6416H10.6092L10.1008 6.2666H9.38965Z" fill="#9CFDFF"/>
<path d="M3.7587 6.2666L3.48514 9.6416H4.19037L4.46411 6.2666H3.7587Z" fill="#D1FEFB"/>
<path d="M7.53589 6.2666L7.80963 9.6416H8.51486L8.2413 6.2666H7.53589Z" fill="#9CFDFF"/>
<path d="M5.64844 6.2666H6.35156V9.6416H5.64844V6.2666Z" fill="#D1FEFB"/>
<path d="M6 6.2666H6.35156V9.6416H6V6.2666Z" fill="#9CFDFF"/>
<path d="M11.8053 5.66324V6.52457H0.194733V5.66324C0.194733 4.74496 0.941986 3.9978 1.86044 3.9978H10.1396C11.058 3.9978 11.8053 4.74496 11.8053 5.66324Z" fill="#FFB74F"/>
<path d="M11.8053 5.66324V6.52457H6V3.9978H10.1396C11.058 3.9978 11.8053 4.74496 11.8053 5.66324Z" fill="#FF9A00"/>
</svg>
