<svg width="12" height="12" viewBox="0 0 12 12" fill="none" xmlns="http://www.w3.org/2000/svg">
<g clip-path="url(#clip0_574_1026)">
<path fill-rule="evenodd" clip-rule="evenodd" d="M10.4575 10.4571C10.4249 10.4898 10.4026 10.5314 10.3936 10.5767C10.3846 10.622 10.3893 10.669 10.407 10.7117C10.4247 10.7544 10.4546 10.7908 10.493 10.8165C10.5314 10.8422 10.5766 10.8559 10.6228 10.8559C10.669 10.8559 10.7142 10.8422 10.7526 10.8165C10.791 10.7908 10.821 10.7544 10.8386 10.7117C10.8563 10.669 10.861 10.622 10.852 10.5767C10.843 10.5314 10.8208 10.4898 10.7881 10.4571C10.7439 10.4135 10.6843 10.3891 10.6223 10.3889C10.5605 10.3889 10.5012 10.4134 10.4575 10.4571ZM10.6223 11.2554C10.4758 11.2551 10.334 11.204 10.221 11.1109C10.108 11.0177 10.0308 10.8883 10.0025 10.7446C9.97417 10.6009 9.99656 10.4518 10.0658 10.3228C10.1351 10.1937 10.2469 10.0927 10.3823 10.0369C10.5177 9.98101 10.6683 9.97383 10.8083 10.0165C10.9484 10.0592 11.0694 10.1492 11.1506 10.271C11.2319 10.3929 11.2683 10.5391 11.2539 10.6849C11.2394 10.8306 11.1748 10.9668 11.0712 11.0703C11.0123 11.1293 10.9423 11.176 10.8652 11.2078C10.7882 11.2395 10.7056 11.2557 10.6223 11.2554ZM12 6.73828L10.7362 6.93942C10.6971 6.94562 10.6607 6.96333 10.6318 6.9903C10.6028 7.01727 10.5826 7.05226 10.5736 7.0908C10.4928 7.42735 10.3753 7.75399 10.2231 8.06484L9.25005 7.09123C9.42667 6.51526 9.44014 5.9016 9.28896 5.31844C9.13777 4.73528 8.82786 4.20545 8.39366 3.78784C7.95945 3.37023 7.41796 3.08119 6.82935 2.95283C6.24075 2.82447 5.62808 2.86183 5.05943 3.06075C5.02738 3.07157 4.9987 3.09054 4.97621 3.1158C4.95372 3.14106 4.93819 3.17174 4.93115 3.20482C4.92348 3.23779 4.92433 3.27218 4.93361 3.30473C4.94289 3.33729 4.96031 3.36695 4.98422 3.39091L6.7346 5.1417L6.39736 6.39795L5.14225 6.73432L3.39077 4.98382C3.36689 4.95986 3.33732 4.94236 3.30483 4.93296C3.27233 4.92356 3.23798 4.92258 3.205 4.9301C3.17195 4.93771 3.14135 4.95353 3.11603 4.97611C3.09071 4.99868 3.0715 5.02727 3.06016 5.05924C2.86126 5.62798 2.82397 6.24073 2.95241 6.82939C3.08085 7.41806 3.37001 7.95958 3.78774 8.39377C4.20547 8.82797 4.73541 9.13783 5.31867 9.28892C5.90194 9.44001 6.51567 9.42641 7.09167 9.24963L8.0647 10.2232C7.75427 10.3753 7.42793 10.4925 7.09167 10.5727C7.05293 10.5818 7.01776 10.6022 6.9906 10.6312C6.96344 10.6603 6.94551 10.6968 6.93907 10.7361L6.73893 12H5.26057L5.06043 10.7363C5.05405 10.6972 5.03627 10.6608 5.00932 10.6317C4.98238 10.6026 4.94746 10.5822 4.90893 10.5728C4.4242 10.458 3.96094 10.2664 3.53672 10.0053C3.50302 9.98446 3.46389 9.97415 3.42432 9.97565C3.38474 9.97715 3.34651 9.99038 3.31448 10.0137L2.2795 10.7651L1.23569 9.72023L1.98649 8.68505C2.0097 8.653 2.02293 8.6148 2.0245 8.57525C2.02607 8.53571 2.01592 8.49658 1.99532 8.46279C1.73332 8.03914 1.54177 7.57579 1.42814 7.0908C1.4187 7.05212 1.39802 7.0171 1.3687 6.99016C1.33938 6.96322 1.30274 6.94556 1.26339 6.93942L-0.000495911 6.73828V5.26125L1.26335 5.06067C1.30273 5.05451 1.3394 5.03681 1.36873 5.0098C1.39805 4.9828 1.41871 4.94771 1.42809 4.90896C1.5417 4.42411 1.73326 3.9609 1.99528 3.53742C2.01587 3.50361 2.02602 3.46446 2.02444 3.4249C2.02287 3.38534 2.00965 3.34712 1.98644 3.31505L1.23569 2.27977L2.2795 1.23495L3.31448 1.98663C3.34677 2.00981 3.38518 2.02296 3.4249 2.02446C3.46462 2.02595 3.5039 2.01571 3.53784 1.99502C3.96155 1.73361 4.42447 1.54187 4.90893 1.42713C4.94741 1.41783 4.9823 1.3974 5.00924 1.36839C5.03618 1.33939 5.05399 1.30309 5.06043 1.26403L5.26057 0H6.73893L6.93907 1.26375C6.94551 1.3028 6.96332 1.33909 6.99025 1.36809C7.01719 1.39709 7.05207 1.41752 7.09054 1.42683C7.57531 1.54173 8.03858 1.73345 8.46276 1.99474C8.4965 2.0155 8.53564 2.02575 8.57522 2.02419C8.6148 2.02263 8.65302 2.00934 8.68502 1.986L9.71997 1.23487L10.7649 2.27977L10.013 3.31505C9.98978 3.34713 9.97657 3.38534 9.97499 3.4249C9.97342 3.46446 9.98357 3.5036 10.0042 3.53742C10.2661 3.96121 10.4584 4.42427 10.5737 4.90896C10.5822 4.94773 10.6024 4.98298 10.6314 5.01007C10.6604 5.03716 10.697 5.0548 10.7362 5.06067L12.0001 5.26125V6.73828H12ZM11.5212 11.505L11.5046 11.5214C11.2956 11.7302 11.0122 11.8474 10.7168 11.8474C10.4214 11.8474 10.138 11.7302 9.92897 11.5214L7.28737 8.88C7.24981 8.8425 7.19891 8.82143 7.14583 8.82141C7.12324 8.82126 7.1008 8.82503 7.0795 8.83256C6.59807 9.00067 6.08042 9.03696 5.58024 8.93765C5.08006 8.83834 4.61555 8.60705 4.23485 8.26776C3.85416 7.92848 3.57114 7.49354 3.41514 7.00804C3.25914 6.52254 3.23584 6.00415 3.34764 5.50662L4.93989 7.09898C4.96483 7.12375 4.99581 7.14157 5.02976 7.15067C5.0637 7.15976 5.09944 7.15983 5.13342 7.15085L6.61286 6.75443C6.64692 6.74557 6.678 6.72779 6.70288 6.70291C6.72776 6.67802 6.74555 6.64695 6.7544 6.61289L7.15026 5.13377C7.15944 5.09982 7.15947 5.06403 7.15034 5.03006C7.14121 4.99609 7.12325 4.96515 7.09828 4.94037L5.50603 3.34823C6.00362 3.23602 6.52218 3.25903 7.00787 3.41489C7.49356 3.57074 7.92869 3.85375 8.26809 4.23453C8.60748 4.61532 8.83877 5.08001 8.93795 5.58036C9.03713 6.08072 9.00058 6.5985 8.83209 7.07995C8.81997 7.1155 8.818 7.15371 8.8264 7.19032C8.8348 7.22692 8.85323 7.26045 8.87962 7.28716L11.5212 9.92857C11.7299 10.1378 11.8471 10.4213 11.8471 10.7168C11.8471 11.0123 11.7299 11.2958 11.5212 11.505Z" fill="url(#paint0_linear_574_1026)"/>
</g>
<defs>
<linearGradient id="paint0_linear_574_1026" x1="-0.000495911" y1="6.00005" x2="12" y2="6.00005" gradientUnits="userSpaceOnUse">
<stop stop-color="#00C2F3"/>
<stop offset="1" stop-color="#4764AF"/>
</linearGradient>
<clipPath id="clip0_574_1026">
<rect width="12" height="12" fill="white"/>
</clipPath>
</defs>
</svg>
