<svg width="38" height="35" viewBox="0 0 38 35" fill="none" xmlns="http://www.w3.org/2000/svg">
<path d="M19.1328 3.54963C19.4523 3.54963 19.7646 3.64437 20.0303 3.82188C20.2959 3.99938 20.503 4.25168 20.6252 4.54685C20.7475 4.84203 20.7795 5.16684 20.7172 5.4802C20.6548 5.79356 20.501 6.0814 20.2751 6.30731C20.0491 6.53323 19.7613 6.68709 19.4479 6.74942C19.1346 6.81175 18.8098 6.77976 18.5146 6.65749C18.2194 6.53523 17.9671 6.32817 17.7896 6.06252C17.6121 5.79687 17.5174 5.48454 17.5174 5.16505C17.5177 4.73673 17.6881 4.32606 17.9909 4.0232C18.2938 3.72033 18.7045 3.55002 19.1328 3.54963ZM19.1328 0.799377C18.2693 0.799377 17.4253 1.05542 16.7073 1.53513C15.9894 2.01483 15.4299 2.69666 15.0994 3.49438C14.769 4.2921 14.6825 5.16989 14.851 6.01674C15.0194 6.8636 15.4352 7.64149 16.0458 8.25204C16.6563 8.86259 17.4342 9.27838 18.2811 9.44683C19.1279 9.61528 20.0057 9.52882 20.8034 9.1984C21.6012 8.86797 22.283 8.30841 22.7627 7.59048C23.2424 6.87255 23.4984 6.02849 23.4984 5.16505C23.4984 4.0072 23.0385 2.89677 22.2198 2.07805C21.4011 1.25933 20.2906 0.799377 19.1328 0.799377ZM4.97042 10.2284C5.28991 10.2284 5.60224 10.3232 5.86789 10.5007C6.13354 10.6782 6.3406 10.9305 6.46286 11.2256C6.58513 11.5208 6.61712 11.8456 6.55479 12.159C6.49246 12.4723 6.3386 12.7602 6.11268 12.9861C5.88677 13.212 5.59893 13.3659 5.28557 13.4282C4.97221 13.4905 4.6474 13.4585 4.35222 13.3363C4.05705 13.214 3.80475 13.007 3.62725 12.7413C3.44974 12.4756 3.355 12.1633 3.355 11.8438C3.35558 11.4156 3.52596 11.005 3.82878 10.7022C4.1316 10.3994 4.54216 10.229 4.97042 10.2284ZM4.97042 7.47815C4.107 7.4783 3.26301 7.73446 2.54518 8.21425C1.82734 8.69405 1.2679 9.37592 0.93758 10.1737C0.607264 10.9714 0.520912 11.8492 0.689444 12.696C0.857976 13.5428 1.27382 14.3206 1.8844 14.9311C2.49498 15.5415 3.27287 15.9573 4.11971 16.1257C4.96654 16.2941 5.8443 16.2076 6.64197 15.8771C7.43965 15.5467 8.12144 14.9871 8.60111 14.2692C9.08078 13.5513 9.33681 12.7072 9.33681 11.8438C9.33681 11.2705 9.22386 10.7027 9.00442 10.173C8.78498 9.64327 8.46334 9.16197 8.05788 8.75657C7.65241 8.35117 7.17106 8.02962 6.64131 7.81026C6.11156 7.59091 5.54378 7.47806 4.97042 7.47815ZM33.2951 10.2284C33.6146 10.2284 33.927 10.3232 34.1926 10.5007C34.4583 10.6782 34.6653 10.9305 34.7876 11.2256C34.9099 11.5208 34.9419 11.8456 34.8795 12.159C34.8172 12.4723 34.6633 12.7602 34.4374 12.9861C34.2115 13.212 33.9237 13.3659 33.6103 13.4282C33.2969 13.4905 32.9721 13.4585 32.677 13.3363C32.3818 13.214 32.1295 13.007 31.952 12.7413C31.7745 12.4756 31.6797 12.1633 31.6797 11.8438C31.6801 11.4155 31.8504 11.0048 32.1533 10.702C32.4562 10.3991 32.8668 10.2288 33.2951 10.2284ZM33.2951 7.47815C32.4317 7.47815 31.5876 7.7342 30.8697 8.2139C30.1518 8.69361 29.5922 9.37543 29.2618 10.1732C28.9314 10.9709 28.8449 11.8487 29.0134 12.6955C29.1818 13.5424 29.5976 14.3203 30.2082 14.9308C30.8187 15.5414 31.5966 15.9572 32.4434 16.1256C33.2903 16.2941 34.1681 16.2076 34.9658 15.8772C35.7635 15.5467 36.4454 14.9872 36.9251 14.2693C37.4048 13.5513 37.6608 12.7073 37.6608 11.8438C37.6609 11.2705 37.5481 10.7028 37.3287 10.173C37.1093 9.64333 36.7878 9.16203 36.3824 8.75662C35.9769 8.35121 35.4956 8.02964 34.9659 7.81028C34.4362 7.59092 33.8685 7.47806 33.2951 7.47815ZM19.1328 14.1779C20.0787 16.3651 21.0616 18.5573 22.0133 20.6815L22.6741 22.1558C23.1005 23.1311 23.8036 23.96 24.6963 24.5399C25.4664 25.036 26.3528 25.3223 27.2676 25.3701C28.1825 25.418 29.0939 25.2258 29.9116 24.8127C30.5793 24.4723 31.168 23.9951 31.6392 23.4123C31.2281 25.6472 30.6744 28.0508 29.9543 30.7402C29.8884 30.974 29.6337 31.2331 29.4911 31.291C26.061 31.7914 22.5992 32.043 19.1328 32.0437C15.6663 32.0418 12.2045 31.789 8.77445 31.2874C8.6297 31.2295 8.37711 30.9697 8.31125 30.7366C7.5875 28.0472 7.03745 25.6436 6.62636 23.4086C7.0976 23.9915 7.68622 24.4687 8.35395 24.8091C9.17164 25.2222 10.0832 25.4144 10.998 25.3664C11.9129 25.3184 12.7993 25.032 13.5693 24.5355C14.4644 23.9553 15.1691 23.1248 15.5958 22.1471C15.8173 21.6511 16.04 21.1537 16.2638 20.6548C17.2105 18.5392 18.1919 16.3535 19.1328 14.1779ZM19.1328 10.9934C18.1962 10.9934 17.2597 11.5724 16.7574 12.7391C15.5567 15.5263 14.2967 18.312 13.08 21.034C12.6132 22.09 11.668 22.6263 10.7213 22.6263C10.317 22.6257 9.9188 22.5274 9.56057 22.3399C9.20233 22.1524 8.89467 21.8812 8.66372 21.5493C7.81693 20.3551 6.99475 19.2 6.2131 18.092C6.09344 17.9151 5.93141 17.771 5.74179 17.6727C5.55217 17.5745 5.34098 17.5253 5.12747 17.5296C4.18297 17.5296 3.14656 18.4054 3.26019 19.4837C3.69444 23.3283 4.54051 27.2894 5.65726 31.4582C6.00248 32.7212 7.15397 33.827 8.34237 34.0044C11.9152 34.5296 15.5216 34.7935 19.1328 34.794C22.744 34.7933 26.3504 34.5291 29.9232 34.0036C31.1116 33.8263 32.2631 32.7204 32.6083 31.4575C33.7251 27.2887 34.5718 23.3276 35.0054 19.483C35.119 18.4025 34.0826 17.5289 33.1381 17.5289C32.9246 17.5246 32.7134 17.5738 32.5238 17.672C32.3341 17.7702 32.1721 17.9144 32.0525 18.0912C31.2708 19.1993 30.4486 20.3544 29.6018 21.5486C29.3709 21.8805 29.0632 22.1517 28.705 22.3392C28.3468 22.5267 27.9486 22.6249 27.5442 22.6255C26.5976 22.6255 25.6523 22.09 25.1855 21.0333C23.9674 18.3105 22.7088 15.5255 21.5081 12.7384C21.0058 11.5724 20.0693 10.9934 19.1328 10.9934Z" fill="url(#paint0_linear_337_7434)"/>
<defs>
<linearGradient id="paint0_linear_337_7434" x1="5.61238" y1="32.0683" x2="32.6532" y2="5.02753" gradientUnits="userSpaceOnUse">
<stop stop-color="#EF5425"/>
<stop offset="1" stop-color="#FCA84C"/>
</linearGradient>
</defs>
</svg>
