<svg width="12" height="12" viewBox="0 0 12 12" fill="none" xmlns="http://www.w3.org/2000/svg">
<g clip-path="url(#clip0_574_2250)">
<path d="M3.74559 0H2.24265C2.04821 0 1.8904 0.157808 1.8904 0.35225V3.06575C1.8904 3.19703 1.96344 3.3175 2.07991 3.37808C2.13111 3.40485 2.187 3.418 2.24265 3.418C2.31357 3.418 2.38426 3.39663 2.44461 3.35436L3.94755 2.30207C4.04172 2.23609 4.09784 2.1283 4.09784 2.01346V0.35225C4.09784 0.157808 3.94003 0 3.74559 0Z" fill="#7E5D40"/>
<path d="M10.2974 4.57208V10.1212C10.2974 10.3156 10.1396 10.4735 9.9452 10.4735H2.05479C1.86035 10.4735 1.70254 10.3156 1.70254 10.1212V4.4967C1.70254 4.39713 1.83733 4.39103 1.9113 4.32433L5.76375 1.40606C5.83115 1.34547 5.91569 1.31494 5.99999 1.31494C6.08453 1.31494 6.16907 1.34547 6.23624 1.40606L10.123 4.38891C10.1969 4.45561 10.2974 4.47251 10.2974 4.57208Z" fill="#F1F6F7"/>
<path d="M5.99998 1.31494C6.08452 1.31494 6.16906 1.34547 6.23622 1.40606L10.123 4.38891C10.1969 4.45561 10.2974 4.47251 10.2974 4.57208V10.1212C10.2974 10.3156 10.1396 10.4735 9.94518 10.4735H5.99998" fill="#DCEAEC"/>
<path d="M8.23091 7.11543V9.74557C8.23091 9.94001 8.0731 10.0978 7.87865 10.0978H4.12132C3.92687 10.0978 3.76907 9.94001 3.76907 9.74557V7.11543C3.76907 6.92099 3.92687 6.76318 4.12132 6.76318H7.87865C8.0731 6.76318 8.23091 6.92099 8.23091 7.11543Z" fill="#7E5D40"/>
<path d="M8.2309 7.11543V9.74557C8.2309 9.94001 8.07309 10.0978 7.87865 10.0978H5.99998V6.76318H7.87865C8.07309 6.76318 8.2309 6.92099 8.2309 7.11543Z" fill="#684D34"/>
<path d="M5.99998 5.96476C6.60955 5.96476 7.1037 5.47061 7.1037 4.86104C7.1037 4.25148 6.60955 3.75732 5.99998 3.75732C5.39041 3.75732 4.89626 4.25148 4.89626 4.86104C4.89626 5.47061 5.39041 5.96476 5.99998 5.96476Z" fill="#7ACCFE"/>
<path d="M7.1037 4.86104C7.1037 5.46973 6.60867 5.96476 5.99998 5.96476V3.75732C6.60867 3.75732 7.1037 4.25235 7.1037 4.86104Z" fill="#4097FE"/>
<path d="M11.9882 9.46155V11.6476C11.9882 11.8421 11.8304 11.9999 11.636 11.9999H0.363969C0.169527 11.9999 0.0117188 11.8421 0.0117188 11.6476V9.46155C0.0117188 9.35986 0.0556326 9.26311 0.132423 9.19618L1.07176 8.37638C1.20444 8.26061 1.40217 8.26061 1.53485 8.37638C1.84112 8.64348 2.00935 8.79058 2.24264 8.99399C3.17735 8.17837 2.81467 8.49495 2.95043 8.37638C3.08311 8.26061 3.28084 8.26061 3.41352 8.37638C3.41798 8.38028 4.06673 8.94635 4.12131 8.99399C4.843 8.36443 4.81346 8.39005 4.8291 8.37638C4.96178 8.26061 5.15951 8.26061 5.29219 8.37638C5.52965 8.58334 5.99991 8.99397 5.99998 8.99399C6.20687 8.81324 6.53495 8.52724 6.70777 8.37638C6.84045 8.26061 7.03818 8.26061 7.17086 8.37638C7.17532 8.38028 7.82407 8.94635 7.87865 8.99399C8.60034 8.36443 8.5708 8.39005 8.58644 8.37638C8.71912 8.26061 8.91685 8.26061 9.04953 8.37638C9.05399 8.38028 9.70274 8.94635 9.75732 8.99399C10.479 8.36443 10.4495 8.39005 10.4651 8.37638C10.5978 8.26061 10.7955 8.26061 10.9282 8.37638L11.8675 9.19618C11.9443 9.26311 11.9882 9.35986 11.9882 9.46155Z" fill="#FFE278"/>
<path d="M11.9882 9.46155V11.6476C11.9882 11.8421 11.8304 11.9999 11.636 11.9999H6.00043C6.00043 8.95555 5.9962 8.99047 5.99855 8.99282C6.0009 8.99517 5.96673 9.02325 6.70775 8.37638C6.84043 8.26061 7.03816 8.26061 7.17084 8.37638C7.1753 8.38028 7.82405 8.94635 7.87863 8.99399C8.60032 8.36443 8.57078 8.39005 8.58642 8.37638C8.7191 8.26061 8.91683 8.26061 9.04951 8.37638C9.05397 8.38028 9.70272 8.94635 9.7573 8.99399C10.479 8.36443 10.4494 8.39005 10.4651 8.37638C10.5978 8.26061 10.7955 8.26061 10.9282 8.37638L11.8675 9.19618C11.9443 9.26311 11.9882 9.35986 11.9882 9.46155Z" fill="#FFB454"/>
<path d="M2.61836 8.66602V11.9999H1.91386V8.70711C1.97374 8.75948 2.05734 8.83251 2.24262 8.99408C2.48779 8.78014 2.52959 8.74351 2.61836 8.66602Z" fill="#FFB454"/>
<path d="M4.47354 8.68652V12H3.76904V8.68699C3.83174 8.74124 3.91087 8.81052 4.12129 8.99416C4.34391 8.79995 4.39886 8.75181 4.47354 8.68652Z" fill="#FFB454"/>
<path d="M6.35222 8.68677V12H5.64772V8.68677C5.66613 8.70285 5.98027 8.97733 5.99856 8.99299C6.00093 8.99536 6.34987 8.68883 6.35222 8.68677Z" fill="#FFB454"/>
<path d="M8.23091 8.68652V12H7.52641V8.68699C7.58911 8.74124 7.66825 8.81052 7.87866 8.99416C8.10129 8.79995 8.15624 8.75181 8.23091 8.68652Z" fill="#FF8E00"/>
<path d="M10.1096 8.68652V12H9.40508V8.68699C9.46778 8.74124 9.54691 8.81052 9.75733 8.99416C9.97995 8.79995 10.0349 8.75181 10.1096 8.68652Z" fill="#FF8E00"/>
<path d="M6.32876 8.70701C6.36231 8.67751 6.35224 8.31972 6.35224 11.9998H5.99999C5.99999 10.5793 5.99905 9.62779 5.99858 8.9928C6.00093 8.99515 5.97519 9.01572 6.32876 8.70701Z" fill="#FF8E00"/>
<path d="M7.51208 1.06372L11.838 4.09261C11.9974 4.20415 12.0362 4.42396 11.9246 4.58317L11.4664 5.23719C11.3549 5.39664 11.1353 5.43538 10.9759 5.32384" fill="#FF3C5A"/>
<path d="M5.79803 0.146379L0.162019 4.09276C0.00256715 4.2043 -0.0361804 4.42411 0.0753656 4.58333L0.533526 5.23757C0.645072 5.39703 0.864641 5.43577 1.02409 5.32423C2.6154 4.20994 4.20672 3.09566 5.79803 1.98137C5.81458 1.96582 5.88442 1.90383 5.99285 1.9012C6.11031 1.89836 6.18696 1.9673 6.20194 1.98137L10.9759 5.32399C11.1353 5.43554 11.3549 5.39679 11.4664 5.23734L11.9246 4.58333C12.0361 4.42411 11.9974 4.2043 11.8379 4.09276L7.51208 1.06387L6.20194 0.146379C6.18031 0.129612 6.10535 0.0758118 5.9959 0.0771738C5.89147 0.0784654 5.82022 0.129166 5.79803 0.146379Z" fill="#FF3C5A"/>
</g>
<defs>
<clipPath id="clip0_574_2250">
<rect width="12" height="12" fill="white"/>
</clipPath>
</defs>
</svg>
