<svg width="43" height="43" viewBox="0 0 43 43" fill="none" xmlns="http://www.w3.org/2000/svg">
<g clip-path="url(#clip0_895_6574)">
<path d="M10.1155 18.1263C9.67503 18.0634 9.369 17.6553 9.43187 17.2149C9.4622 17.0026 9.57597 16.8111 9.74796 16.6829L18.8738 9.86339C19.2348 9.60334 19.7382 9.68509 19.9984 10.046C20.252 10.3982 20.1812 10.888 19.8381 11.1537L10.7123 17.9733C10.5414 18.1014 10.3268 18.1564 10.1155 18.1263Z" fill="#455A64"/>
<path d="M32.4412 21.3551C32.2296 21.3249 32.0386 21.2118 31.9104 21.0406L25.0909 11.9148C24.8308 11.5539 24.9126 11.0504 25.2735 10.7903C25.6256 10.5366 26.1154 10.6075 26.3812 10.9505L33.2008 20.0764C33.4665 20.4332 33.3928 20.9379 33.0359 21.2036C32.8655 21.3306 32.6517 21.3851 32.4412 21.3551Z" fill="#455A64"/>
<path d="M7.16211 16.0705L35.8638 20.2218C38.0654 20.5402 39.592 22.5831 39.2736 24.7847L37.8898 34.3519C37.5714 36.5535 35.5285 38.0801 33.3269 37.7617L4.62519 33.6104C2.42361 33.2919 0.897008 31.249 1.21544 29.0475L2.59921 19.4802C2.91764 17.2786 4.96052 15.752 7.16211 16.0705Z" fill="#4CAF50"/>
<path d="M5.08132 30.4213C4.641 30.3576 4.33566 29.949 4.39935 29.5087L5.78312 19.9415C5.84681 19.5011 6.25542 19.1958 6.69573 19.2595L11.4794 19.9514C11.9197 20.0151 12.225 20.4237 12.1613 20.864C12.0976 21.3043 11.689 21.6096 11.2487 21.546L7.26239 20.9694L5.99394 29.7393C5.93025 30.1797 5.52164 30.485 5.08132 30.4213Z" fill="#FAFAFA"/>
<path d="M8.9628 26.099L5.77369 25.6377C5.33337 25.574 5.02803 25.1654 5.09171 24.7251C5.1554 24.2848 5.56401 23.9794 6.00433 24.0431L9.19343 24.5044C9.63375 24.5681 9.93909 24.9767 9.87541 25.417C9.81172 25.8573 9.40311 26.1627 8.9628 26.099Z" fill="#FAFAFA"/>
<path d="M17.8376 32.2663C17.6259 32.2361 17.435 32.123 17.3068 31.9519L14.3801 28.0334L13.9666 30.8925C13.9029 31.3328 13.4943 31.6381 13.054 31.5744C12.6137 31.5108 12.3083 31.1022 12.372 30.6618L13.7558 21.0946C13.8195 20.6543 14.2281 20.3489 14.6684 20.4126L17.0602 20.7586C18.8215 21.0133 20.0428 22.6477 19.788 24.4089C19.5333 26.1702 17.8989 27.3915 16.1377 27.1368L15.6705 27.0692L18.5974 30.986C18.8642 31.342 18.7917 31.8469 18.4357 32.1137C18.2645 32.242 18.0494 32.2969 17.8376 32.2663ZM14.7738 25.3116L16.3683 25.5422C17.2489 25.6696 18.0661 25.0589 18.1935 24.1783C18.3208 23.2977 17.7102 22.4805 16.8296 22.3532L15.235 22.1225L14.7738 25.3116Z" fill="#FAFAFA"/>
<path d="M25.8103 33.4195L21.0266 32.7276C20.5863 32.6639 20.281 32.2553 20.3447 31.815L21.7284 22.2477C21.7921 21.8074 22.2007 21.5021 22.641 21.5658L27.4247 22.2576C27.865 22.3213 28.1703 22.7299 28.1066 23.1703C28.043 23.6106 27.6343 23.9159 27.194 23.8522L23.2077 23.2757L22.0546 31.2484L26.0409 31.825C26.4812 31.8886 26.7865 32.2973 26.7229 32.7376C26.6591 33.1778 26.2506 33.4832 25.8103 33.4195Z" fill="#FAFAFA"/>
<path d="M24.9081 28.4053L21.719 27.944C21.2787 27.8804 20.9733 27.4717 21.037 27.0314C21.1007 26.5911 21.5093 26.2858 21.9496 26.3494L25.1387 26.8107C25.5791 26.8744 25.8844 27.283 25.8207 27.7233C25.757 28.1636 25.3484 28.469 24.9081 28.4053Z" fill="#FAFAFA"/>
<path d="M33.779 34.5727L28.9954 33.8808C28.5551 33.8171 28.2497 33.4085 28.3134 32.9682L29.6972 23.4009C29.7609 22.9606 30.1695 22.6553 30.6098 22.719L35.3934 23.4108C35.8337 23.4745 36.1391 23.8831 36.0754 24.3235C36.0117 24.7638 35.6031 25.0691 35.1628 25.0054L31.1765 24.4289L30.0233 32.4016L34.0096 32.9782C34.4499 33.0418 34.7553 33.4505 34.6916 33.8908C34.6279 34.331 34.2193 34.6364 33.779 34.5727Z" fill="#FAFAFA"/>
<path d="M32.8769 29.5584L29.6878 29.0972C29.2474 29.0335 28.9421 28.6249 29.0058 28.1846C29.0695 27.7442 29.4781 27.4389 29.9184 27.5026L33.1075 27.9638C33.5478 28.0275 33.8532 28.4361 33.7895 28.8765C33.7258 29.3168 33.3172 29.6221 32.8769 29.5584Z" fill="#FAFAFA"/>
<path d="M21.9699 14.9571C19.7683 14.6386 18.2417 12.5957 18.5601 10.3942C18.8786 8.19258 20.9215 6.66598 23.123 6.98441C25.3246 7.30284 26.8512 9.34571 26.5328 11.5473C26.2144 13.7489 24.1716 15.2755 21.9699 14.9571Z" fill="#607D8B"/>
</g>
<defs>
<clipPath id="clip0_895_6574">
<rect width="37.0561" height="37.0561" fill="white" transform="translate(5.36328 0.345764) rotate(8.23)"/>
</clipPath>
</defs>
</svg>
