<svg width="38" height="38" viewBox="0 0 38 38" fill="none" xmlns="http://www.w3.org/2000/svg">
<path d="M17.1243 15.9017V21.6917C17.1243 22.3303 17.6437 22.8497 18.2823 22.8497H20.5983C21.237 22.8497 21.7563 22.3303 21.7563 21.6917V21.1127H24.0724V21.6917C24.0724 23.6074 22.514 25.1657 20.5983 25.1657V26.9027H18.2823V25.1657C16.3667 25.1657 14.8083 23.6074 14.8083 21.6917V15.9017C14.8083 13.986 16.3667 12.4277 18.2823 12.4277V10.6907H20.5983V12.4277C22.514 12.4277 24.0724 13.986 24.0724 15.9017H21.7563C21.7563 15.263 21.237 14.7437 20.5983 14.7437H18.2823C17.6437 14.7437 17.1243 15.263 17.1243 15.9017ZM32.7574 18.7967C32.7574 26.1396 26.7833 32.1137 19.4403 32.1137C12.0974 32.1137 6.12332 26.1396 6.12332 18.7967C6.12332 11.4537 12.0974 5.47964 19.4403 5.47964C26.7833 5.47964 32.7574 11.4537 32.7574 18.7967ZM30.4414 18.7967C30.4414 12.7307 25.5063 7.79565 19.4403 7.79565C13.3744 7.79565 8.43932 12.7307 8.43932 18.7967C8.43932 24.8626 13.3744 29.7977 19.4403 29.7977C25.5063 29.7977 30.4414 24.8626 30.4414 18.7967ZM36.8104 18.7967C36.8104 28.3745 29.0182 36.1667 19.4403 36.1667C9.86251 36.1667 2.07031 28.3745 2.07031 18.7967C2.07031 9.21884 9.86251 1.42664 19.4403 1.42664C29.0182 1.42664 36.8104 9.21884 36.8104 18.7967ZM34.4944 18.7967C34.4944 10.4959 27.7411 3.74264 19.4403 3.74264C11.1395 3.74264 4.38632 10.4959 4.38632 18.7967C4.38632 27.0975 11.1395 33.8507 19.4403 33.8507C27.7411 33.8507 34.4944 27.0975 34.4944 18.7967Z" fill="url(#paint0_linear_337_7420)"/>
<defs>
<linearGradient id="paint0_linear_337_7420" x1="2.07031" y1="18.7967" x2="36.8104" y2="18.7967" gradientUnits="userSpaceOnUse">
<stop stop-color="#FFF33B"/>
<stop offset="0.0401054" stop-color="#FEE72E"/>
<stop offset="0.11709" stop-color="#FED51B"/>
<stop offset="0.196406" stop-color="#FDCA10"/>
<stop offset="0.280899" stop-color="#FDC70C"/>
<stop offset="0.668539" stop-color="#F3903F"/>
<stop offset="0.88764" stop-color="#ED683C"/>
<stop offset="1" stop-color="#E93E3A"/>
</linearGradient>
</defs>
</svg>
