<svg width="17" height="17" viewBox="0 0 17 17" fill="none" xmlns="http://www.w3.org/2000/svg">
<path d="M3.79248 2.33242C3.79225 2.79655 3.60765 3.24157 3.2793 3.5696C2.95095 3.89762 2.50573 4.08178 2.04161 4.08154C1.57748 4.08131 1.13245 3.89671 0.804425 3.56836C0.4764 3.24001 0.292249 2.7948 0.292481 2.33067C0.292713 1.86654 0.47731 1.42151 0.805663 1.09349C1.13402 0.765463 1.57923 0.581311 2.04336 0.581543C2.50748 0.581775 2.95251 0.766372 3.28054 1.09473C3.60856 1.42308 3.79271 1.86829 3.79248 2.33242ZM3.84498 5.37742H0.344981V16.3324H3.84498V5.37742ZM9.37498 5.37742H5.89248V16.3324H9.33998V10.5837C9.33998 7.38117 13.5137 7.08367 13.5137 10.5837V16.3324H16.97V9.39367C16.97 3.99492 10.7925 4.19617 9.33998 6.84742L9.37498 5.37742Z" fill="#003B73"/>
</svg>
