<svg width="12" height="12" viewBox="0 0 12 12" fill="none" xmlns="http://www.w3.org/2000/svg">
<g clip-path="url(#clip0_574_835)">
<path d="M6.20728 3.31042H7.44866V1.24146H6.20728H2.89693V3.31042H6.20728Z" fill="#285680"/>
<path d="M2.4828 7.86206V10.3448H7.2226H8.06901V7.86206H2.4828Z" fill="#285680"/>
<path d="M9.31034 2.89673V8.27604H2.68965C1.2042 8.27604 0 7.07184 0 5.58638C0 4.10093 1.2042 2.89673 2.68965 2.89673H9.31034Z" fill="#4482C3"/>
<path d="M9.31034 6.20671H11.7931C11.9074 6.20671 12 6.11408 12 5.99981V5.17223C12 5.05796 11.9074 4.96533 11.7931 4.96533H9.31034V6.20671Z" fill="#1A1A1A"/>
<path d="M10.138 3.72431V7.44845C10.138 7.90552 9.76744 8.27604 9.31037 8.27604H9.10348V2.89673H9.31037C9.76744 2.89673 10.138 3.26725 10.138 3.72431Z" fill="#285680"/>
<path d="M7.65515 7.03442H2.48274C2.36847 7.03442 2.27584 7.12705 2.27584 7.24132C2.27584 7.35559 2.36847 7.44822 2.48274 7.44822H7.65515C7.76942 7.44822 7.86205 7.35559 7.86205 7.24132C7.86205 7.12705 7.76942 7.03442 7.65515 7.03442Z" fill="#285680"/>
<path d="M2.48274 4.13791H7.65515C7.76942 4.13791 7.86205 4.04528 7.86205 3.93102C7.86205 3.81675 7.76942 3.72412 7.65515 3.72412H2.48274C2.36847 3.72412 2.27584 3.81675 2.27584 3.93102C2.27584 4.04528 2.36847 4.13791 2.48274 4.13791Z" fill="#285680"/>
<path d="M7.65515 6H2.48274C2.36847 6 2.27584 6.09263 2.27584 6.2069C2.27584 6.32116 2.36847 6.41379 2.48274 6.41379H7.65515C7.76942 6.41379 7.86205 6.32116 7.86205 6.2069C7.86205 6.09263 7.76942 6 7.65515 6Z" fill="#285680"/>
<path d="M7.65515 4.75854H2.48274C2.36847 4.75854 2.27584 4.85118 2.27584 4.96544C2.27584 5.07971 2.36847 5.17234 2.48274 5.17234H7.65515C7.76942 5.17234 7.86205 5.07971 7.86205 4.96544C7.86205 4.85118 7.76942 4.75854 7.65515 4.75854Z" fill="#285680"/>
<path d="M9.31031 10.3446V10.9653C9.30682 11.0825 9.20943 11.1749 9.09224 11.1722H1.45942C1.34223 11.1749 1.24484 11.0825 1.24135 10.9653V10.3446C1.24484 10.2275 1.34223 10.1351 1.45942 10.1378H9.09224C9.20943 10.1351 9.30682 10.2275 9.31031 10.3446Z" fill="#4482C3"/>
<path d="M7.44832 1.65522H7.52736C7.59903 1.65518 7.66559 1.61805 7.70326 1.55707C7.74093 1.49609 7.74436 1.41996 7.71232 1.35584L7.50543 0.942051C7.47047 0.872102 7.39907 0.827835 7.32087 0.827637H3.00005C2.93492 0.827637 2.8736 0.858298 2.83453 0.910395L2.52418 1.32419C2.47716 1.38688 2.4696 1.47076 2.50465 1.54085C2.53969 1.61095 2.61133 1.65522 2.6897 1.65522H7.44832Z" fill="#4482C3"/>
<path d="M1.65511 7.34148C1.6142 7.34155 1.5742 7.32938 1.54028 7.30652C0.96568 6.92263 0.620674 6.27721 0.620674 5.58617C0.620674 4.89513 0.96568 4.24972 1.54028 3.86583C1.60169 3.82317 1.68135 3.81697 1.74862 3.84961C1.8159 3.88225 1.86032 3.94865 1.86483 4.02329C1.86933 4.09793 1.83321 4.1692 1.77035 4.20969C1.31049 4.51677 1.03435 5.03321 1.03435 5.58617C1.03435 6.13913 1.31049 6.65557 1.77035 6.96265C1.84607 7.01335 1.87972 7.10762 1.8532 7.1948C1.82668 7.28198 1.74623 7.34155 1.65511 7.34148Z" fill="#9FC9D3"/>
</g>
<defs>
<clipPath id="clip0_574_835">
<rect width="12" height="12" fill="white"/>
</clipPath>
</defs>
</svg>
