<svg width="12" height="12" viewBox="0 0 12 12" fill="none" xmlns="http://www.w3.org/2000/svg">
<g clip-path="url(#clip0_574_2725)">
<path d="M3.55985 1.52596V3.89388H1.59668V1.52596C1.59668 1.34282 1.74663 1.19287 1.92977 1.19287H3.22678C3.40992 1.19289 3.55985 1.34282 3.55985 1.52596Z" fill="#57565C"/>
<path d="M4.48799 6.1647C4.48679 7.30245 3.70815 7.92828 2.8543 8.0393C1.81684 8.17444 0.668564 7.55053 0.668564 6.16303C0.668564 4.94243 1.59667 4.88752 1.59667 3.65307V3.65283H3.55986V3.66549C3.55986 4.88105 4.48895 4.94553 4.48799 6.1647Z" fill="#FFCD00"/>
<path d="M3.55986 1.52596V3.89388H2.15373V1.52596C2.15373 1.34282 2.30369 1.19287 2.48683 1.19287H3.22677C3.40994 1.19289 3.55986 1.34282 3.55986 1.52596Z" fill="#898890"/>
<path d="M4.48798 6.1647C4.48678 7.30245 3.70814 7.92828 2.85429 8.0393C2.00187 7.92828 1.22562 7.30364 1.22562 6.16303C1.22562 4.94243 2.15372 4.88752 2.15372 3.65307V3.65283H3.55985V3.66549C3.55985 4.88105 4.48894 4.94553 4.48798 6.1647Z" fill="#FFDA44"/>
<path d="M2.61009 9.43904C2.51116 9.43904 2.431 9.35888 2.431 9.25995V8.74281C2.431 8.64388 2.51116 8.56372 2.61009 8.56372C2.70902 8.56372 2.78917 8.64388 2.78917 8.74281V9.25995C2.78917 9.35888 2.70902 9.43904 2.61009 9.43904Z" fill="#FFCD00"/>
<path d="M3.51921 9.27362C3.44442 9.27362 3.37467 9.22642 3.34952 9.15163L3.18454 8.66153C3.153 8.56778 3.20341 8.46622 3.29714 8.43468C3.39089 8.40318 3.49244 8.45354 3.52399 8.54727L3.68897 9.03737C3.72051 9.13112 3.6701 9.23268 3.57637 9.26422C3.55746 9.27058 3.53814 9.27362 3.51921 9.27362Z" fill="#FFDA44"/>
<path d="M4.34628 8.7953C4.29368 8.7953 4.24158 8.77224 4.20622 8.72796L3.88355 8.32381C3.82186 8.24651 3.83447 8.13382 3.91177 8.07211C3.98907 8.01035 4.10173 8.02306 4.16347 8.10033L4.48613 8.50449C4.54782 8.58178 4.53521 8.69447 4.45791 8.75618C4.42491 8.78253 4.38547 8.7953 4.34628 8.7953Z" fill="#FFCD00"/>
<path d="M0.810195 8.79782C0.768124 8.79782 0.72589 8.78308 0.691835 8.75308C0.617679 8.68769 0.610531 8.57451 0.675945 8.5003L1.01792 8.11239C1.08331 8.03826 1.19649 8.03109 1.27069 8.0965C1.34485 8.16189 1.352 8.27507 1.28659 8.34927L0.944609 8.73719C0.909195 8.77729 0.859812 8.79782 0.810195 8.79782Z" fill="#FFCD00"/>
<path d="M1.63778 9.27506C1.61605 9.27506 1.59395 9.27107 1.57251 9.26266C1.48044 9.22656 1.43502 9.12267 1.47109 9.03058L1.65976 8.54908C1.69583 8.45702 1.79978 8.41164 1.89184 8.44767C1.9839 8.48376 2.02933 8.58766 1.99326 8.67974L1.80458 9.16124C1.77688 9.23191 1.70931 9.27506 1.63778 9.27506Z" fill="#FFDA44"/>
<path d="M3.55986 2.71218V3.07033H2.62794C2.52908 3.07033 2.44885 2.9901 2.44885 2.89124C2.44885 2.79215 2.52908 2.71216 2.62794 2.71216L3.55986 2.71218Z" fill="#2D2D30"/>
<path d="M2.0907 2.89122C2.0907 2.99008 2.01047 3.07031 1.91161 3.07031H1.59668V2.71216H1.91163C2.01047 2.71216 2.0907 2.79213 2.0907 2.89122Z" fill="#2D2D30"/>
<path d="M10.1397 3.30049C10.0408 3.30049 9.96066 3.22034 9.96066 3.12141C9.96066 2.65263 9.57926 2.27126 9.11051 2.27126C9.01158 2.27126 8.93143 2.1911 8.93143 2.09217C8.93143 1.99324 9.01158 1.91309 9.11051 1.91309C9.77679 1.91309 10.3188 2.45512 10.3188 3.12141C10.3188 3.22034 10.2387 3.30049 10.1397 3.30049Z" fill="#B3D8F4"/>
<path d="M11.8209 3.30054C11.722 3.30054 11.6418 3.22038 11.6418 3.12145C11.6418 1.72565 10.5063 0.590105 9.11047 0.590105C9.01154 0.590105 8.93138 0.509949 8.93138 0.41102C8.93138 0.31209 9.01154 0.231934 9.11047 0.231934C10.7037 0.231934 12 1.52817 12 3.12145C12 3.22038 11.9198 3.30054 11.8209 3.30054Z" fill="#3D9AE2"/>
<path d="M11.012 3.30043C10.913 3.30043 10.8329 3.22027 10.8329 3.12134C10.8329 2.17163 10.0602 1.39894 9.11051 1.39894C9.01158 1.39894 8.93143 1.31879 8.93143 1.21986C8.93143 1.12093 9.01158 1.04077 9.11051 1.04077C10.2577 1.04077 11.1911 1.9741 11.1911 3.12132C11.191 3.22027 11.1109 3.30043 11.012 3.30043Z" fill="#78B9EB"/>
<path d="M9.38831 4.1142V11.2357C9.38831 11.6015 9.08894 11.9009 8.72308 11.9009H5.57653C5.21069 11.9009 4.9113 11.6015 4.9113 11.2357V4.1142C4.9113 3.74837 5.21067 3.44897 5.57653 3.44897H8.72308C9.08889 3.449 9.38831 3.74837 9.38831 4.1142Z" fill="#2D2D30"/>
<path d="M9.38828 4.1142V11.2357C9.38828 11.6015 9.08891 11.9009 8.72305 11.9009H6.07769C5.71183 11.9009 5.41246 11.6015 5.41246 11.2357V4.1142C5.41246 3.74837 5.71183 3.44897 6.07769 3.44897H8.72305C9.08887 3.449 9.38828 3.74837 9.38828 4.1142Z" fill="#57565C"/>
<path d="M9.38828 4.75293H4.9113V10.5966H9.38828V4.75293Z" fill="#D1E7F8"/>
<path d="M5.41249 4.75293H4.9113V10.5966H5.41249V4.75293Z" fill="#B3D8F4"/>
<path d="M7.12858 4.27876H6.42278C6.31729 4.27876 6.23177 4.19324 6.23177 4.08774C6.23177 3.98225 6.31729 3.89673 6.42278 3.89673H7.12858C7.23407 3.89673 7.31959 3.98225 7.31959 4.08774C7.31959 4.19324 7.23409 4.27876 7.12858 4.27876Z" fill="#1D1D1F"/>
<path d="M7.72615 4.23013C7.80474 4.23013 7.86844 4.16643 7.86844 4.08785C7.86844 4.00926 7.80474 3.94556 7.72615 3.94556C7.64757 3.94556 7.58386 4.00926 7.58386 4.08785C7.58386 4.16643 7.64757 4.23013 7.72615 4.23013Z" fill="#1D1D1F"/>
<path d="M7.66644 11.4387H6.62481C6.5259 11.4387 6.44572 11.3586 6.44572 11.2597C6.44572 11.1607 6.5259 11.0806 6.62481 11.0806H7.66644C7.76535 11.0806 7.84553 11.1607 7.84553 11.2597C7.84551 11.3586 7.76533 11.4387 7.66644 11.4387Z" fill="#1D1D1F"/>
<path d="M7.77785 6.33888C7.68846 6.29676 7.58168 6.33511 7.53956 6.42459C7.49744 6.51407 7.53581 6.62076 7.62527 6.66288C8.01874 6.84818 8.27297 7.2487 8.27297 7.68337C8.27297 8.26104 7.84052 8.74291 7.2671 8.80422C7.24565 8.80652 7.22547 8.81252 7.20717 8.82152C7.188 8.81451 7.1673 8.81067 7.14569 8.81067C6.52413 8.81067 6.01842 8.30498 6.01842 7.68337C6.01842 7.28718 6.22059 6.92721 6.55922 6.72044C6.64364 6.66888 6.67026 6.5587 6.61875 6.47428C6.56721 6.38988 6.45701 6.36318 6.37258 6.41475C5.92652 6.68709 5.66025 7.16135 5.66025 7.68337C5.66025 8.50247 6.32662 9.16882 7.14567 9.16882C7.17401 9.16882 7.20079 9.16225 7.22463 9.15051C7.24959 9.15965 7.27697 9.16336 7.30514 9.16033C8.06107 9.07952 8.63109 8.44457 8.63109 7.68337C8.63114 7.11068 8.29619 6.58293 7.77785 6.33888Z" fill="#3D9AE2"/>
<path d="M7.14565 7.75745C7.24456 7.75745 7.32474 7.67729 7.32474 7.57836V5.95667C7.32474 5.85774 7.24456 5.77759 7.14565 5.77759C7.04675 5.77759 6.96657 5.85774 6.96657 5.95667V7.57836C6.96659 7.67729 7.04677 7.75745 7.14565 7.75745Z" fill="#3D9AE2"/>
<path d="M11.303 10.3915L9.87682 11.0132C9.70645 11.0875 9.50615 11.0088 9.43183 10.8385L9.30881 10.5563C9.29683 10.5289 9.27347 10.5083 9.24471 10.5001L8.26589 10.2213C8.06618 10.1644 7.94313 9.95251 8.00266 9.75359C8.06098 9.55925 8.26629 9.44621 8.46183 9.50194L8.7007 9.56647C8.76719 9.58444 8.82673 9.53232 8.82673 9.47061C8.82673 9.45744 8.82394 9.44384 8.81812 9.43046C8.81491 9.42348 8.81212 9.41628 8.80952 9.40909C8.80612 9.40231 8.80275 9.3953 8.79954 9.38832L8.10272 7.79016C8.02181 7.60442 8.10412 7.38673 8.28567 7.30006C8.29866 7.29387 8.31204 7.2883 8.32603 7.28349C8.51278 7.21958 8.71687 7.31544 8.79576 7.49637L9.45544 9.00924L10.5016 8.5531C10.6719 8.4788 10.872 8.55748 10.9464 8.72785L11.4465 9.87462L11.4778 9.94651C11.5519 10.1171 11.4734 10.3172 11.303 10.3915Z" fill="#FFA733"/>
<path d="M11.718 11.2332L10.5193 11.7559L10.1682 11.909C10.0584 11.9568 9.93073 11.9066 9.8828 11.797L9.68089 11.3337C9.62457 11.2042 9.6841 11.0525 9.8135 10.9961L10.1736 10.8389L11.2904 10.352C11.4199 10.2957 11.5716 10.3554 11.628 10.4846L11.8301 10.948C11.8778 11.0576 11.8277 11.1854 11.718 11.2332Z" fill="#1A6FB0"/>
<path d="M11.718 11.2332L10.5193 11.7559C10.4522 11.7379 10.3937 11.6908 10.3637 11.6221L10.1431 11.1158C10.1021 11.0219 10.1173 10.9169 10.1736 10.8389L11.2905 10.352C11.4199 10.2957 11.5717 10.3554 11.628 10.4846L11.8301 10.948C11.8778 11.0576 11.8277 11.1854 11.718 11.2332Z" fill="#3D9AE2"/>
<path d="M11.4464 9.87465L10.0602 10.4918C9.89345 10.5659 9.6981 10.4908 9.62443 10.324L8.28571 7.30006C8.29869 7.29387 8.31207 7.2883 8.32606 7.28349C8.51281 7.21958 8.71691 7.31544 8.7958 7.49637L9.45547 9.00924L10.5016 8.5531C10.672 8.4788 10.8721 8.55748 10.9464 8.72785L11.4464 9.87465Z" fill="#FFC477"/>
<path d="M5.15653 0.599967C5.15653 1.4278 4.48535 2.09875 3.65775 2.09875H1.49878C1.08499 2.09875 0.710344 1.93112 0.439102 1.65988C0.167859 1.38864 0 1.01376 0 0.599967C0 0.308897 0.235898 0.072998 0.526969 0.072998H4.62956C4.77497 0.072998 4.90678 0.131967 5.00229 0.22724C5.09756 0.322748 5.15653 0.454537 5.15653 0.599967Z" fill="#1D1D1F"/>
<path d="M5.15651 0.599967C5.15651 1.4278 4.48533 2.09875 3.65773 2.09875H2.23107C1.81704 2.09875 1.44239 1.93112 1.17115 1.65988C0.900144 1.38864 0.732285 1.01376 0.732285 0.599967C0.732285 0.308897 0.968183 0.072998 1.25925 0.072998H4.62952C4.77493 0.072998 4.90674 0.131967 5.00225 0.22724C5.09754 0.322748 5.15651 0.454537 5.15651 0.599967Z" fill="#2D2D30"/>
</g>
<defs>
<clipPath id="clip0_574_2725">
<rect width="12" height="12" fill="white"/>
</clipPath>
</defs>
</svg>
