<svg width="38" height="38" viewBox="0 0 38 38" fill="none" xmlns="http://www.w3.org/2000/svg">
<g clip-path="url(#clip0_337_7401)">
<mask id="mask0_337_7401" style="mask-type:luminance" maskUnits="userSpaceOnUse" x="0" y="1" width="38" height="36">
<path d="M0.214844 1.15094H37.2709V36.4424H0.214844V1.15094Z" fill="white"/>
</mask>
<g mask="url(#mask0_337_7401)">
<path fill-rule="evenodd" clip-rule="evenodd" d="M28.0702 19.5096C26.2244 21.2953 25.3809 23.8645 25.8186 26.3861L26.6285 31.0728L22.3847 28.8601C21.266 28.276 20.0061 27.9672 18.7426 27.9672C17.4774 27.9672 16.2175 28.276 15.0988 28.8601L10.855 31.0728L11.6667 26.3861C12.1025 23.8645 11.2591 21.2953 9.41331 19.5096L5.98298 16.1904L10.7262 15.5058C13.2777 15.1387 15.4799 13.5506 16.6216 11.2567L18.7426 6.99168L20.8636 11.2567C22.0035 13.5506 24.2075 15.1387 26.7573 15.5058L31.5023 16.1904L28.0702 19.5096ZM36.2543 17.7962C38.2447 15.871 37.1471 12.5166 34.3962 12.1195L27.4031 11.112C26.3091 10.9549 25.3651 10.2738 24.878 9.29092L21.7512 3.00551C21.1354 1.76854 19.939 1.15094 18.7426 1.15094C17.5462 1.15094 16.3481 1.76854 15.734 3.00551L12.609 9.29092C12.1202 10.2738 11.1744 10.9549 10.0838 11.112L3.09084 12.1195C0.339869 12.5166 -0.759461 15.871 1.23098 17.7962L6.29178 22.6893C7.08231 23.4534 7.44405 24.5545 7.257 25.6344L6.06238 32.5445C5.68829 34.6955 7.41228 36.4424 9.36567 36.4424C9.88092 36.4424 10.4138 36.3207 10.9273 36.0525L17.181 32.7898C17.6698 32.5357 18.2062 32.4069 18.7426 32.4069C19.2773 32.4069 19.8137 32.5357 20.3025 32.7898L26.5579 36.0525C27.0714 36.3207 27.6025 36.4424 28.1178 36.4424C30.073 36.4424 31.7952 34.6955 31.4229 32.5445L30.23 25.6344C30.043 24.5545 30.4029 23.4534 31.1935 22.6893L36.2543 17.7962Z" fill="url(#paint0_linear_337_7401)"/>
</g>
</g>
<defs>
<linearGradient id="paint0_linear_337_7401" x1="18.7426" y1="1.15094" x2="18.7426" y2="36.4424" gradientUnits="userSpaceOnUse">
<stop stop-color="#A3A3FF"/>
<stop offset="1" stop-color="#1F1FFF"/>
</linearGradient>
<clipPath id="clip0_337_7401">
<rect width="37.0561" height="37.0561" fill="white" transform="translate(0.214844 0.268616)"/>
</clipPath>
</defs>
</svg>
