<svg width="12" height="12" viewBox="0 0 12 12" fill="none" xmlns="http://www.w3.org/2000/svg">
<path d="M4.40625 3.14062V3.5625H4.78125V3.14062C4.78125 2.95941 4.92816 2.8125 5.10938 2.8125C5.29059 2.8125 5.4375 2.95941 5.4375 3.14062V3.5625H5.8125V3.14062C5.8125 2.7523 5.4977 2.4375 5.10938 2.4375C4.72105 2.4375 4.40625 2.7523 4.40625 3.14062Z" fill="#FF7A00"/>
<path d="M7.78125 3.14062V3.5625H7.40625V3.14062C7.40625 2.95941 7.25934 2.8125 7.07812 2.8125C6.89691 2.8125 6.75 2.95941 6.75 3.14062V3.5625H6.375V3.14062C6.375 2.7523 6.6898 2.4375 7.07812 2.4375C7.46645 2.4375 7.78125 2.7523 7.78125 3.14062Z" fill="#FF7A00"/>
<path d="M5.4375 3.9375H1.5C1.39644 3.9375 1.3125 4.02144 1.3125 4.125V6.1855C1.4476 6.14246 1.6012 6.15202 1.74113 6.23274C2.11407 6.4479 2.57343 6.4479 2.94637 6.23274L3.28141 6.03945C3.45536 5.93909 3.66964 5.93909 3.84359 6.03945L4.12537 6.20201C4.53127 6.43619 5.03123 6.43619 5.43713 6.20201L5.4375 6.20181V3.9375Z" fill="#FF7A00"/>
<path d="M10.6875 6.1855V4.125C10.6875 4.02144 10.6036 3.9375 10.5 3.9375H7.78125V6.25102C7.81286 6.23602 7.84402 6.21968 7.87463 6.20201L8.15641 6.03945C8.33036 5.93909 8.54464 5.93909 8.71859 6.03945L9.05363 6.23274C9.42656 6.4479 9.88594 6.4479 10.2589 6.23274C10.3988 6.15202 10.5524 6.14246 10.6875 6.1855Z" fill="#FF7A00"/>
<path d="M7.40625 3.9375H5.8125V4.875H7.40625V3.9375Z" fill="#FF7A00"/>
<path d="M7.40625 5.25V6.3642C7.11941 6.40556 6.82197 6.3515 6.56287 6.20201L6.28109 6.03945C6.13726 5.95647 5.96587 5.9421 5.8125 5.99634V5.25H7.40625Z" fill="#FF7A00"/>
<path d="M1.5 9.18743C1.39644 9.18743 1.3125 9.10349 1.3125 8.99993V6.69682C1.3125 6.57302 1.4465 6.49562 1.55374 6.55749C2.04264 6.83956 2.64486 6.83956 3.13376 6.55749L3.46881 6.36421C3.52679 6.33075 3.59821 6.33075 3.65619 6.36421L3.93797 6.52676C4.45985 6.82785 5.10265 6.82785 5.62453 6.52676L5.90631 6.36421C5.96429 6.33075 6.03571 6.33075 6.09369 6.36421L6.37547 6.52676C6.89735 6.82785 7.54015 6.82785 8.06203 6.52676L8.34381 6.36421C8.40179 6.33075 8.47321 6.33075 8.5312 6.36421L8.86624 6.55749C9.35514 6.83956 9.95738 6.83956 10.4463 6.55749C10.5535 6.49562 10.6875 6.57302 10.6875 6.69682V8.99993C10.6875 9.10349 10.6036 9.18743 10.5 9.18743H1.5Z" fill="#FFAA5B"/>
</svg>
